<?xml version="1.0" standalone="no"?>
<!DOCTYPE svg PUBLIC "-//W3C//DTD SVG 20010904//EN"
 "http://www.w3.org/TR/2001/REC-SVG-20010904/DTD/svg10.dtd">
<svg version="1.0" xmlns="http://www.w3.org/2000/svg"
 width="600.000000pt" height="600.000000pt" viewBox="0 0 600.000000 600.000000"
 preserveAspectRatio="xMidYMid meet">
<metadata>
Created by potrace 1.11, written by Peter Selinger 2001-2013
</metadata>
<g transform="translate(0.000000,600.000000) scale(0.100000,-0.100000)"
fill="#000000" stroke="none">
<path d="M3530 5718 c-41 -10 -82 -21 -90 -23 -8 -2 -15 -4 -15 -5 0 -3 -82
-21 -105 -24 -8 0 -17 -3 -20 -6 -5 -6 -119 -36 -175 -46 -16 -3 -38 -10 -47
-15 -9 -5 -21 -8 -25 -7 -4 1 -28 -5 -53 -12 -25 -8 -52 -15 -60 -16 -8 -2
-24 -5 -35 -8 -11 -3 -40 -11 -65 -17 -25 -7 -47 -15 -50 -18 -3 -3 -16 -7
-30 -8 -31 -3 -59 -8 -87 -18 l-22 -7 0 -439 0 -440 27 -28 c15 -16 43 -48 62
-71 19 -23 43 -49 53 -58 9 -9 17 -22 17 -29 0 -7 3 -12 8 -10 4 1 7 -3 7 -8
0 -13 -68 -13 -77 0 -5 6 -8 5 -8 -3 0 -10 -5 -10 -20 -2 -14 8 -20 8 -20 0 0
-6 -5 -8 -12 -3 -7 4 -44 9 -83 10 -38 1 -100 4 -137 6 -72 4 -73 3 -71 -50 1
-7 -4 -13 -10 -13 -6 0 -7 -3 -4 -7 4 -3 1 -13 -6 -21 -10 -13 -9 -14 2 -7 10
6 12 4 6 -5 -7 -12 -14 -42 -17 -77 -1 -7 -4 -13 -7 -13 -4 0 -7 -15 -9 -32
-5 -72 -10 -93 -20 -91 -7 2 -8 -7 -2 -27 6 -21 4 -32 -6 -41 -7 -6 -12 -15
-9 -19 2 -4 0 -31 -6 -61 -5 -30 -10 -62 -10 -72 0 -9 -4 -15 -8 -12 -5 2 -7
-7 -5 -20 1 -14 -1 -25 -5 -25 -4 0 -6 -12 -6 -27 1 -16 -2 -35 -6 -43 -4 -9
-10 -36 -13 -60 -7 -60 -13 -88 -22 -102 -5 -7 -3 -8 6 -3 10 6 11 4 4 -6 -4
-8 -10 -23 -11 -33 -2 -11 -7 -24 -11 -30 -5 -6 -7 -23 -6 -38 2 -16 -1 -28
-7 -28 -5 0 -9 -5 -9 -11 0 -5 4 -8 10 -4 5 3 3 -7 -5 -22 -8 -15 -15 -39 -15
-53 0 -14 -4 -32 -10 -40 -6 -9 -5 -20 3 -29 10 -12 9 -13 -1 -7 -10 6 -13 2
-11 -15 1 -13 -3 -42 -9 -64 -8 -27 -8 -41 -1 -46 7 -4 5 -8 -5 -12 -10 -4
-13 -15 -10 -32 3 -15 1 -24 -3 -22 -4 3 -9 -10 -10 -29 -1 -19 2 -34 8 -34 5
0 9 -7 9 -15 0 -8 4 -15 8 -15 7 0 36 -65 30 -65 -2 0 7 -11 19 -24 11 -12 23
-31 26 -42 5 -17 -1 -19 -56 -20 -215 -3 -253 -5 -266 -13 -10 -6 -12 -5 -7 2
4 7 2 12 -6 11 -27 -1 -43 -15 -46 -39 -2 -14 -5 -29 -5 -35 -1 -5 -6 -13 -12
-17 -6 -5 -5 -8 3 -8 7 0 11 -4 8 -8 -6 -9 -16 -60 -21 -107 -2 -16 -7 -41
-10 -55 -2 -14 -6 -44 -7 -67 0 -24 -4 -43 -8 -43 -3 0 -7 -12 -7 -27 -1 -26
-19 -182 -28 -230 -2 -13 -7 -28 -11 -34 -5 -8 -3 -9 5 -4 10 6 11 3 2 -14 -7
-12 -9 -26 -6 -31 3 -6 0 -10 -7 -10 -9 0 -9 -3 2 -10 8 -5 10 -10 5 -10 -6 0
-11 -10 -11 -22 -1 -13 -4 -41 -9 -63 -4 -22 -8 -59 -9 -82 0 -23 -4 -39 -8
-37 -4 3 -8 -14 -8 -38 0 -24 -5 -49 -12 -56 -9 -9 -9 -12 1 -12 7 0 10 -4 7
-9 -5 -8 -13 -59 -19 -121 -1 -14 -6 -31 -10 -37 -5 -8 -4 -13 3 -13 8 0 8 -6
0 -21 -7 -11 -14 -42 -16 -67 -5 -54 -11 -97 -14 -97 -1 0 -4 -21 -13 -100 -1
-11 -6 -23 -12 -27 -6 -5 -5 -8 3 -8 9 0 10 -5 4 -17 -5 -10 -7 -24 -4 -32 2
-8 0 -11 -5 -8 -5 3 -10 0 -10 -8 0 -8 5 -15 11 -15 6 0 4 -5 -4 -10 -11 -7
-11 -10 -2 -10 8 0 10 -5 5 -13 -4 -6 -8 -21 -8 -32 -1 -12 -7 -19 -15 -17
-10 2 -11 0 -3 -10 6 -7 10 -25 8 -40 -3 -22 12 -43 88 -120 51 -51 91 -96 90
-100 -2 -5 1 -8 7 -8 5 0 50 -41 99 -90 50 -50 88 -90 85 -90 -2 0 12 -15 33
-32 47 -42 74 -68 69 -68 -3 0 9 -14 26 -30 16 -17 34 -30 39 -30 5 0 9 -3 9
-7 0 -5 11 -21 25 -37 14 -16 25 -26 25 -22 0 4 6 1 14 -6 8 -7 12 -15 10 -17
-2 -2 8 -12 21 -23 24 -19 52 -19 845 -22 598 -3 820 0 821 8 1 6 1 14 0 19 0
4 3 7 7 7 5 0 9 12 9 28 1 15 4 43 7 62 8 52 17 121 21 155 2 17 4 30 5 30 1
0 4 23 7 50 2 28 8 66 12 85 4 19 7 47 7 62 -1 16 1 28 5 28 3 0 5 18 4 40 -1
22 1 40 5 40 11 0 7 34 -5 42 -6 5 -5 8 4 8 7 0 11 6 7 15 -3 8 -2 15 2 15 4
0 8 15 9 33 1 17 5 52 8 77 3 25 8 60 9 79 2 18 9 38 14 43 7 7 7 19 2 33 -5
13 -6 26 -2 30 4 4 8 11 8 16 1 5 2 10 3 12 1 1 4 31 7 67 5 80 8 98 17 106 4
4 2 13 -4 20 -6 7 -7 19 -3 26 10 15 12 27 18 88 3 25 5 45 6 45 1 0 4 18 6
40 5 48 8 67 15 80 3 6 4 27 4 47 -1 21 2 38 6 38 4 0 6 8 4 18 -1 9 2 25 7
35 6 11 5 17 -3 17 -8 0 -8 4 -2 13 5 6 11 30 12 53 1 22 3 49 5 59 3 19 -44
75 -57 68 -4 -3 -6 0 -5 5 2 6 -5 18 -14 29 -10 10 -36 37 -58 61 -22 24 -40
47 -40 52 0 6 -6 10 -13 10 -8 0 -13 13 -13 35 0 19 4 35 7 35 4 0 6 11 3 25
-3 15 0 25 7 25 8 0 7 5 -1 16 -11 12 -11 15 0 12 10 -2 14 7 13 29 0 18 5 33
11 33 6 0 4 5 -4 10 -8 5 -10 10 -4 10 6 0 10 16 9 35 0 19 2 35 5 35 4 0 7 6
7 13 1 6 4 28 8 47 3 19 7 47 8 63 1 15 6 27 10 27 5 0 7 8 6 18 -1 9 0 19 1
22 4 10 11 46 14 75 3 17 5 31 6 33 2 1 3 11 4 21 0 11 4 22 8 26 4 4 4 13 2
20 -3 7 0 23 6 35 10 18 9 21 -1 15 -8 -6 -10 -4 -3 6 10 16 16 43 18 81 0 14
4 24 7 22 3 -2 7 9 7 24 2 33 6 54 13 67 3 6 5 24 5 42 -1 17 2 29 5 27 4 -2
9 5 12 16 3 11 0 20 -6 20 -8 0 -9 3 -2 8 6 4 12 27 14 52 2 25 6 47 10 50 3
3 6 17 6 33 -1 15 2 27 5 27 9 0 9 59 -1 65 -5 4 -7 11 -4 16 4 5 1 9 -4 9 -6
0 -11 7 -11 16 0 9 -8 28 -18 42 -11 15 -25 42 -33 60 -8 17 -17 32 -21 32 -5
0 -7 3 -6 8 1 4 -3 17 -10 30 -7 12 -10 27 -7 32 4 6 1 9 -7 8 -7 -2 -12 3
-10 10 1 7 -5 15 -13 18 -8 4 -15 14 -15 24 0 10 -6 25 -12 32 -7 7 -14 20
-16 28 -2 8 -8 17 -13 18 -5 2 -7 8 -3 13 3 5 1 9 -4 9 -6 0 -13 11 -16 25 -4
14 -11 25 -16 25 -5 0 -7 7 -4 15 4 8 1 15 -5 15 -6 0 -11 5 -11 12 0 6 -8 20
-17 31 -10 11 -12 17 -5 13 7 -4 -1 12 -17 36 -16 23 -27 46 -25 50 3 5 0 8
-5 8 -6 0 -11 9 -11 20 0 11 -5 20 -11 20 -6 0 -8 7 -5 16 3 8 2 13 -3 9 -5
-3 -11 0 -13 5 -4 12 -35 17 -108 20 l-45 2 47 12 c25 6 49 14 53 18 4 4 13 4
21 1 8 -3 14 0 14 7 0 6 5 8 10 5 6 -4 17 -1 25 5 12 10 15 10 15 0 0 -9 3
-10 13 -1 8 6 17 8 20 4 4 -3 7 -1 7 6 0 7 6 11 14 8 8 -3 17 -3 20 1 4 3 19
8 34 10 15 2 31 10 36 19 10 19 12 106 2 122 -4 6 -3 11 2 11 5 0 6 17 2 40
-4 23 -3 40 2 40 5 0 6 5 2 12 -10 15 -11 68 -2 68 4 0 3 11 -2 24 -5 15 -5
27 3 35 8 8 8 11 0 11 -8 0 -9 9 -3 30 5 17 5 30 1 30 -9 0 -8 31 3 48 4 6 2
12 -3 12 -13 0 -10 22 4 32 7 5 7 8 0 8 -12 0 -12 141 0 160 5 8 4 11 -3 6 -8
-4 -10 12 -6 54 3 47 1 59 -9 54 -6 -4 -4 2 6 13 12 14 15 23 8 28 -6 3 -11
14 -11 23 -1 9 -14 28 -30 42 -17 13 -30 28 -30 33 0 6 -12 22 -27 37 -16 15
-38 41 -50 57 -12 16 -33 41 -45 55 -13 14 -39 44 -58 68 -19 23 -50 58 -67
78 -18 21 -33 40 -33 43 0 16 -30 15 -100 -3z"/>
</g>
</svg>
